<mxfile host="app.diagrams.net" modified="2021-01-14T23:51:13.766Z" agent="5.0 (Macintosh; Intel Mac OS X 10_15_7) AppleWebKit/537.36 (KHTML, like Gecko) Chrome/87.0.4280.88 Safari/537.36" etag="tBGWHDXln0bSJ7uzx7C9" version="14.2.2" type="github">
  <diagram id="Xfyv7IOQzojDjEUrqk7k" name="Page-1">
    <mxGraphModel dx="3231" dy="4350" grid="1" gridSize="10" guides="1" tooltips="1" connect="1" arrows="1" fold="1" page="1" pageScale="1" pageWidth="827" pageHeight="1169" math="0" shadow="0">
      <root>
        <mxCell id="0" />
        <mxCell id="1" parent="0" />
        <mxCell id="hJRNVsqhO5odHL188pAT-2" value="" style="whiteSpace=wrap;html=1;aspect=fixed;" vertex="1" parent="1">
          <mxGeometry x="-830" y="-3507" width="830" height="830" as="geometry" />
        </mxCell>
        <mxCell id="hJRNVsqhO5odHL188pAT-3" value="" style="rounded=0;whiteSpace=wrap;html=1;" vertex="1" parent="1">
          <mxGeometry x="-827" y="-3507" width="827" height="60" as="geometry" />
        </mxCell>
        <mxCell id="hJRNVsqhO5odHL188pAT-4" value="LOGO" style="whiteSpace=wrap;html=1;rounded=0;shadow=0;labelBackgroundColor=none;strokeWidth=1;fontFamily=Verdana;fontSize=28;align=center;comic=1;" vertex="1" parent="1">
          <mxGeometry x="-820" y="-3502" width="190" height="50" as="geometry" />
        </mxCell>
        <mxCell id="hJRNVsqhO5odHL188pAT-7" value="" style="rounded=0;whiteSpace=wrap;html=1;" vertex="1" parent="1">
          <mxGeometry x="-750" y="-3380" width="660" height="460" as="geometry" />
        </mxCell>
        <mxCell id="hJRNVsqhO5odHL188pAT-8" value="&lt;font style=&quot;font-size: 23px&quot;&gt;Completa tus Datos&lt;/font&gt;" style="text;html=1;resizable=0;autosize=1;align=center;verticalAlign=middle;points=[];fillColor=none;strokeColor=none;rounded=0;" vertex="1" parent="1">
          <mxGeometry x="-725" y="-3340" width="220" height="20" as="geometry" />
        </mxCell>
        <mxCell id="hJRNVsqhO5odHL188pAT-10" value="&lt;span style=&quot;font-size: 18px ; text-align: left ; background-color: rgb(255 , 255 , 255)&quot;&gt;Nombre y Apellido&lt;/span&gt;" style="text;html=1;resizable=0;autosize=1;align=center;verticalAlign=middle;points=[];fillColor=none;strokeColor=none;rounded=0;" vertex="1" parent="1">
          <mxGeometry x="-725" y="-3280" width="160" height="20" as="geometry" />
        </mxCell>
        <mxCell id="hJRNVsqhO5odHL188pAT-13" value="&lt;font style=&quot;font-size: 18px&quot;&gt;Clave&lt;/font&gt;" style="text;html=1;resizable=0;autosize=1;align=center;verticalAlign=middle;points=[];fillColor=none;strokeColor=none;rounded=0;" vertex="1" parent="1">
          <mxGeometry x="-725" y="-3103.5" width="60" height="20" as="geometry" />
        </mxCell>
        <mxCell id="hJRNVsqhO5odHL188pAT-14" value="" style="rounded=1;whiteSpace=wrap;html=1;" vertex="1" parent="1">
          <mxGeometry x="-720" y="-3240" width="470" height="30" as="geometry" />
        </mxCell>
        <mxCell id="hJRNVsqhO5odHL188pAT-15" value="&lt;span style=&quot;color: rgba(0 , 0 , 0 , 0.45) ; background-color: rgb(255 , 255 , 255)&quot;&gt;&lt;font style=&quot;font-size: 12px&quot;&gt;Asegúrate de tener acceso a este E- Mail&amp;nbsp; &amp;nbsp;&lt;/font&gt;&lt;/span&gt;" style="rounded=1;whiteSpace=wrap;html=1;align=left;" vertex="1" parent="1">
          <mxGeometry x="-720" y="-3160" width="470" height="30" as="geometry" />
        </mxCell>
        <mxCell id="hJRNVsqhO5odHL188pAT-16" value="&lt;span style=&quot;color: rgba(0 , 0 , 0 , 0.45) ; background-color: rgb(255 , 255 , 255)&quot;&gt;&lt;font style=&quot;font-size: 12px&quot;&gt;Usa entre 6 y 8 caracteres, deberá contener letras, números y al menos un caracter&amp;nbsp;&lt;/font&gt;&lt;/span&gt;" style="rounded=1;whiteSpace=wrap;html=1;align=left;" vertex="1" parent="1">
          <mxGeometry x="-720" y="-3070" width="470" height="30" as="geometry" />
        </mxCell>
        <mxCell id="hJRNVsqhO5odHL188pAT-17" value="&lt;font style=&quot;font-size: 11px&quot;&gt;&lt;span style=&quot;color: rgba(0 , 0 , 0 , 0.45) ; background-color: rgb(255 , 255 , 255)&quot;&gt;Acepto los&amp;nbsp;&lt;/span&gt;&lt;a target=&quot;_blank&quot; href=&quot;https://ayuda.mercadolibre.com.uy/ayuda/terminos-y-condiciones-de-uso_991&quot; style=&quot;color: rgb(52 , 131 , 250) ; background-color: rgb(255 , 255 , 255)&quot;&gt;Términos y Condiciones&lt;/a&gt;&lt;span style=&quot;color: rgba(0 , 0 , 0 , 0.45) ; background-color: rgb(255 , 255 , 255)&quot;&gt;&amp;nbsp;y autorizo el uso de mis datos de acuerdo a la&amp;nbsp;&lt;/span&gt;&lt;a target=&quot;_blank&quot; href=&quot;https://www.mercadolibre.com.uy/privacidad&quot; style=&quot;color: rgb(52 , 131 , 250) ; background-color: rgb(255 , 255 , 255)&quot;&gt;Declaración de Privacidad&lt;/a&gt;&lt;span style=&quot;color: rgba(0 , 0 , 0 , 0.45) ; background-color: rgb(255 , 255 , 255)&quot;&gt;.&lt;/span&gt;&lt;/font&gt;" style="text;html=1;resizable=0;autosize=1;align=center;verticalAlign=middle;points=[];fillColor=none;strokeColor=none;rounded=0;" vertex="1" parent="1">
          <mxGeometry x="-700" y="-3020" width="550" height="20" as="geometry" />
        </mxCell>
        <mxCell id="hJRNVsqhO5odHL188pAT-18" value="&lt;span style=&quot;color: rgba(0 , 0 , 0 , 0.45) ; background-color: rgb(255 , 255 , 255)&quot;&gt;&lt;font style=&quot;font-size: 12px&quot;&gt;Ingrésalo tal cual figura en tu DNI&amp;nbsp;&lt;/font&gt;&lt;/span&gt;" style="text;html=1;resizable=0;autosize=1;align=left;verticalAlign=middle;points=[];fillColor=none;strokeColor=none;rounded=0;" vertex="1" parent="1">
          <mxGeometry x="-720" y="-3235" width="200" height="20" as="geometry" />
        </mxCell>
        <mxCell id="hJRNVsqhO5odHL188pAT-19" value="&lt;span style=&quot;font-size: 18px ; text-align: left ; background-color: rgb(255 , 255 , 255)&quot;&gt;E-Mail&lt;/span&gt;" style="text;html=1;resizable=0;autosize=1;align=center;verticalAlign=middle;points=[];fillColor=none;strokeColor=none;rounded=0;" vertex="1" parent="1">
          <mxGeometry x="-725" y="-3190" width="70" height="20" as="geometry" />
        </mxCell>
        <mxCell id="hJRNVsqhO5odHL188pAT-20" value="" style="dashed=0;labelPosition=right;align=left;shape=mxgraph.gmdl.checkbox;strokeColor=none;fillColor=#B0B0B0;strokeWidth=2;aspect=fixed;" vertex="1" parent="1">
          <mxGeometry x="-716" y="-3020" width="16" height="16" as="geometry" />
        </mxCell>
        <mxCell id="hJRNVsqhO5odHL188pAT-21" value="" style="rounded=0;whiteSpace=wrap;html=1;" vertex="1" parent="1">
          <mxGeometry x="-830" y="-2717" width="830" height="40" as="geometry" />
        </mxCell>
        <mxCell id="hJRNVsqhO5odHL188pAT-22" value="&lt;meta charset=&quot;utf-8&quot;&gt;&lt;span style=&quot;color: rgb(0, 0, 0); font-family: verdana; font-size: 14px; font-style: normal; font-weight: 400; letter-spacing: normal; text-align: left; text-indent: 0px; text-transform: none; word-spacing: 0px; background-color: rgb(248, 249, 250); display: inline; float: none;&quot;&gt;Copyright 2020, Hecho a Mano. S.A&lt;/span&gt;" style="text;whiteSpace=wrap;html=1;" vertex="1" parent="1">
          <mxGeometry x="-280" y="-2712" width="280" height="30" as="geometry" />
        </mxCell>
      </root>
    </mxGraphModel>
  </diagram>
</mxfile>
